<?xml version="1.0" standalone="no"?>
<!DOCTYPE svg PUBLIC "-//W3C//DTD SVG 20010904//EN"
 "http://www.w3.org/TR/2001/REC-SVG-20010904/DTD/svg10.dtd">
<svg version="1.0" xmlns="http://www.w3.org/2000/svg"
 width="50.000000pt" height="50.000000pt" viewBox="0 0 50.000000 50.000000"
 preserveAspectRatio="xMidYMid meet">
<metadata>
Created by potrace 1.10, written by Peter Selinger 2001-2011
</metadata>
<g transform="translate(0.000000,50.000000) scale(0.100000,-0.100000)"
fill="#ffffff" stroke="none">
<path d="M20 480 c-19 -19 -20 -35 -20 -230 0 -197 1 -211 20 -230 19 -19 33
-20 230 -20 197 0 211 1 230 20 19 19 20 33 20 230 0 197 -1 211 -20 230 -19
19 -33 20 -231 20 -195 -1 -211 -2 -229 -20z m218 -96 c32 -22 30 -76 -3 -102
l-26 -20 24 -26 23 -25 13 62 c6 34 17 77 22 95 11 32 11 32 78 32 54 0 74 -4
95 -21 65 -51 8 -164 -86 -171 -42 -3 -42 -3 -53 -53 l-10 -50 -44 -3 c-47 -4
-47 -3 -25 65 3 10 -3 4 -14 -13 -11 -17 -35 -36 -53 -43 -40 -14 -169 -15
-169 -1 0 9 57 251 65 278 6 18 135 16 163 -4z"/>
<path d="M146 338 c-13 -41 -13 -58 -1 -58 18 0 37 26 33 46 -4 22 -27 30 -32
12z"/>
<path d="M367 333 c-10 -18 -18 -73 -10 -73 22 0 54 33 51 53 -3 22 -32 35
-41 20z"/>
<path d="M111 194 c-13 -46 -9 -51 25 -36 20 10 25 18 22 39 -5 44 -35 42 -47
-3z"/>
</g>
</svg>
