<?xml version="1.0" standalone="no"?>
<!DOCTYPE svg PUBLIC "-//W3C//DTD SVG 20010904//EN"
 "http://www.w3.org/TR/2001/REC-SVG-20010904/DTD/svg10.dtd">
<svg version="1.0" xmlns="http://www.w3.org/2000/svg"
 width="150.000000pt" height="150.000000pt" viewBox="0 0 150.000000 150.000000"
 preserveAspectRatio="xMidYMid meet">
<metadata>
Created by potrace 1.10, written by Peter Selinger 2001-2011
</metadata>
<g transform="translate(0.000000,150.000000) scale(0.100000,-0.100000)"
fill="#000000" stroke="none">
<path d="M568 1459 c-15 -11 -51 -28 -80 -37 -40 -13 -54 -22 -56 -39 -8 -53
134 -263 178 -263 36 0 39 18 33 184 -7 185 -14 201 -75 155z m53 -155 c4 -76
5 -142 2 -146 -11 -20 -35 -3 -77 52 -91 120 -111 190 -53 190 12 0 40 11 62
25 22 13 45 23 50 21 6 -1 13 -63 16 -142z"/>
<path d="M772 1131 c-63 -22 -156 -108 -195 -180 -35 -65 -46 -223 -22 -307
27 -93 50 -129 106 -165 28 -19 57 -45 64 -60 18 -33 134 -95 197 -104 84 -13
183 33 277 126 57 57 81 97 81 134 0 17 14 57 30 90 16 33 30 75 30 93 0 41
-36 105 -87 154 -48 46 -161 108 -197 108 -47 0 -139 -57 -191 -117 -42 -48
-49 -63 -53 -108 -3 -43 1 -65 22 -112 39 -85 70 -113 122 -113 51 0 75 21
100 86 13 35 14 49 4 79 -21 65 -95 76 -88 13 4 -39 -24 -51 -42 -18 -9 17 -7
28 7 57 25 50 62 75 120 80 62 5 103 -19 132 -79 26 -54 26 -81 2 -133 -43
-95 -139 -149 -262 -150 -63 0 -67 2 -118 44 -83 69 -120 161 -102 255 11 61
74 154 110 163 14 3 37 14 50 25 13 10 31 18 40 18 9 0 44 14 78 32 69 36 81
64 41 92 -33 23 -186 21 -256 -3z m232 -7 c9 -3 16 -14 16 -23 0 -18 -55 -49
-164 -93 -66 -26 -104 -60 -144 -126 -37 -64 -38 -173 -2 -245 23 -45 98 -125
140 -147 25 -14 123 -13 174 2 205 59 273 280 117 380 -55 34 -78 35 -139 4
-54 -27 -76 -49 -92 -90 -13 -36 2 -82 30 -91 26 -8 62 16 56 37 -5 23 11 33
29 18 38 -31 1 -143 -50 -156 -40 -10 -71 10 -104 68 -25 43 -31 64 -31 115 0
58 3 65 41 110 41 48 139 113 171 113 26 0 131 -57 177 -97 77 -65 103 -160
62 -227 -11 -17 -22 -49 -26 -71 -11 -66 -31 -99 -97 -160 -76 -71 -150 -107
-219 -107 -68 1 -167 47 -204 95 -15 20 -46 49 -70 64 -76 48 -105 125 -106
281 -1 120 14 160 87 241 58 64 103 92 167 101 67 10 161 12 181 4z"/>
<path d="M214 1095 c-4 -8 1 -43 10 -78 8 -34 20 -86 27 -115 12 -56 30 -73
58 -54 9 7 46 30 84 53 73 45 81 63 45 96 -26 22 -192 113 -208 113 -6 0 -13
-7 -16 -15z m112 -56 c44 -23 87 -50 98 -59 18 -17 16 -19 -51 -64 -39 -25
-75 -46 -81 -46 -5 0 -17 35 -26 78 -9 42 -21 87 -26 99 -7 17 -5 33 5 33 2 0
38 -19 81 -41z"/>
<path d="M177 664 c-13 -13 28 -244 46 -256 8 -5 19 1 32 18 39 51 85 92 147
132 105 68 105 68 90 84 -9 9 -47 13 -135 13 -67 1 -133 4 -147 8 -14 5 -29 5
-33 1z m128 -35 c22 1 48 4 58 7 10 3 36 3 57 -1 l40 -7 -86 -61 c-48 -34 -98
-76 -111 -94 -14 -18 -29 -30 -34 -27 -5 3 -7 9 -5 12 2 4 -2 34 -10 67 -7 33
-14 73 -14 88 0 27 2 28 33 21 17 -4 50 -6 72 -5z"/>
<path d="M514 287 c-52 -52 -94 -102 -94 -111 0 -18 39 -40 90 -51 19 -4 61
-18 94 -32 66 -27 109 -27 114 1 2 10 -10 48 -27 85 -17 36 -34 95 -38 131
-12 94 -25 92 -139 -23z m120 2 c4 -34 19 -87 34 -118 15 -31 28 -59 30 -63 7
-15 -58 -8 -100 11 -24 10 -65 25 -92 33 -27 7 -51 18 -53 24 -4 13 147 174
163 174 7 0 14 -27 18 -61z"/>
</g>
</svg>
